<svg width="473" height="99" viewBox="0 0 473 99" fill="none" xmlns="http://www.w3.org/2000/svg">
<path d="M470.5 49.5C470.5 52.0498 469.277 54.7935 466.408 57.7283C463.53 60.6718 459.157 63.6315 453.306 66.527C441.613 72.3131 424.531 77.594 403.219 82.0548C360.634 90.9678 301.689 96.5 236.5 96.5C171.311 96.5 112.366 90.9678 69.7814 82.0548C48.4687 77.594 31.387 72.3131 19.6941 66.527C13.843 63.6315 9.47029 60.6718 6.59245 57.7283C3.72315 54.7935 2.5 52.0498 2.5 49.5C2.5 46.9502 3.72315 44.2065 6.59245 41.2717C9.47029 38.3282 13.843 35.3685 19.6941 32.473C31.387 26.6869 48.4687 21.406 69.7814 16.9452C112.366 8.03218 171.311 2.5 236.5 2.5C301.689 2.5 360.634 8.03218 403.219 16.9452C424.531 21.406 441.613 26.6869 453.306 32.473C459.157 35.3685 463.53 38.3282 466.408 41.2717C469.277 44.2065 470.5 46.9502 470.5 49.5Z" fill="#3ACC2D" stroke="#9AA3F4" stroke-width="5"/>
</svg>
